<?xml version="1.0" standalone="no"?><!DOCTYPE svg PUBLIC "-//W3C//DTD SVG 1.1//EN" "http://www.w3.org/Graphics/SVG/1.1/DTD/svg11.dtd"><svg t="1556979225220" class="icon" style="" viewBox="0 0 1142 1024" version="1.1" xmlns="http://www.w3.org/2000/svg" p-id="1129" xmlns:xlink="http://www.w3.org/1999/xlink" width="223.046875" height="200"><defs><style type="text/css"></style></defs><path d="M1009.558974 287.507692H227.117949v563.2c0 38.071795 31.507692 68.266667 68.266666 68.266667h714.174359c38.071795 0 68.266667-31.507692 68.266667-68.266667V355.774359c1.312821-36.758974-30.194872-68.266667-68.266667-68.266667" fill="#F3EAED" p-id="1130"></path><path d="M928.164103 828.389744H129.969231c-32.820513 0-59.076923-26.25641-59.076923-59.076923V190.358974c0-32.820513 26.25641-59.076923 59.076923-59.076923h798.194872c32.820513 0 59.076923 26.25641 59.076923 59.076923v578.953847c0 32.820513-26.25641 59.076923-59.076923 59.076923z m-791.63077-65.641026h785.066667V196.923077H136.533333v565.825641z" fill="#677BAF" p-id="1131"></path><path d="M529.066667 620.964103c-10.502564 0-21.005128-2.625641-28.882052-9.189744L95.835897 312.451282l15.753847-21.005128L515.938462 590.769231c6.564103 5.251282 19.692308 5.251282 26.25641 0l404.348718-300.635898 15.753846 21.005129-404.348718 300.635897c-7.876923 6.564103-18.379487 9.189744-28.882051 9.189744z" fill="#677BAF" p-id="1132"></path></svg>