<?xml version="1.0" standalone="no"?><!DOCTYPE svg PUBLIC "-//W3C//DTD SVG 1.1//EN" "http://www.w3.org/Graphics/SVG/1.1/DTD/svg11.dtd"><svg t="1557060607221" class="icon" style="" viewBox="0 0 1024 1024" version="1.1" xmlns="http://www.w3.org/2000/svg" p-id="2093" xmlns:xlink="http://www.w3.org/1999/xlink" width="200" height="200"><defs><style type="text/css"></style></defs><path d="M865.28 198.4A471.04 471.04 0 1 0 984.96 512a473.6 473.6 0 0 0-119.68-313.6z m-41.6 576a774.4 774.4 0 0 0-128-35.2 896 896 0 0 0 27.52-213.12h195.84a407.04 407.04 0 0 1-96 249.6z m-256 140.8a405.12 405.12 0 0 1-53.12 3.84 405.76 405.76 0 0 1-53.12-3.84A309.76 309.76 0 0 1 369.28 768 999.68 999.68 0 0 1 512 756.48a999.68 999.68 0 0 1 142.72 10.88 309.76 309.76 0 0 1-89.6 149.76z m-53.12-192a1029.76 1029.76 0 0 0-151.68 12.16 862.72 862.72 0 0 1-28.16-208h359.04a862.72 862.72 0 0 1-28.16 208 1030.4 1030.4 0 0 0-153.6-10.88z m-311.04 51.84a407.68 407.68 0 0 1-96-247.68h192.64a896 896 0 0 0 27.52 213.12 775.68 775.68 0 0 0-126.72 35.2z m3.84-531.84a781.44 781.44 0 0 0 128 33.92 890.24 890.24 0 0 0-28.8 218.24H104.32a407.04 407.04 0 0 1 99.84-251.52z m256-136.96A403.2 403.2 0 0 1 512 103.04a403.2 403.2 0 0 1 53.12 3.84 304 304 0 0 1 87.68 144.64 1000.32 1000.32 0 0 1-140.8 10.24 1000.32 1000.32 0 0 1-140.8-10.88 304 304 0 0 1 87.68-144zM512 293.76a1031.68 1031.68 0 0 0 150.4-11.52 858.88 858.88 0 0 1 29.44 213.76H332.16a858.88 858.88 0 0 1 29.44-213.76A1032.32 1032.32 0 0 0 512 293.76z m211.84 202.24a890.24 890.24 0 0 0-28.8-218.24 781.44 781.44 0 0 0 128-33.92 407.04 407.04 0 0 1 99.84 252.16z m71.68-277.76a768 768 0 0 1-109.44 28.8 416.64 416.64 0 0 0-64-128 409.6 409.6 0 0 1 172.8 99.2zM403.2 118.4a416.64 416.64 0 0 0-64 128 768 768 0 0 1-109.44-28.8A409.6 409.6 0 0 1 403.2 118.4zM224.64 801.28a757.12 757.12 0 0 1 112-30.08 421.76 421.76 0 0 0 64 133.76 408.32 408.32 0 0 1-176-103.68z m396.16 104.32a421.76 421.76 0 0 0 64-133.76 757.76 757.76 0 0 1 112 30.08 408.96 408.96 0 0 1-176 103.68z" fill="#1B213F" p-id="2094"></path></svg>